<?xml version="1.0" standalone="no"?>
<!DOCTYPE svg PUBLIC "-//W3C//DTD SVG 20010904//EN"
 "http://www.w3.org/TR/2001/REC-SVG-20010904/DTD/svg10.dtd">
<svg version="1.0" xmlns="http://www.w3.org/2000/svg"
 width="200.000000pt" height="200.000000pt" viewBox="0 0 200.000000 200.000000"
 preserveAspectRatio="xMidYMid meet">

<g transform="translate(0.000000,200.000000) scale(0.100000,-0.100000)"
fill="#000000" stroke="none">
<path d="M720 1709 c-157 -104 -288 -189 -292 -189 -5 0 -8 32 -8 70 l0 70
-70 0 -70 0 0 -120 0 -120 -70 -46 c-38 -26 -70 -50 -70 -53 0 -10 70 -111 76
-111 3 0 19 9 35 21 l29 20 0 -220 0 -221 720 0 720 0 0 221 0 220 29 -20 c16
-12 32 -21 35 -21 13 0 79 111 70 119 -10 8 -822 554 -839 563 -5 3 -138 -79
-295 -183z m597 -188 l263 -176 0 -197 0 -198 -580 0 -580 0 0 198 1 197 292
192 c287 188 292 191 317 176 14 -9 143 -95 287 -192z"/>
<path d="M241 413 c-7 -54 -17 -138 -23 -186 -6 -50 -17 -95 -25 -103 -13 -12
-10 -14 22 -14 23 0 34 4 30 11 -4 5 -1 74 6 152 l12 141 19 -39 c110 -237
132 -278 136 -261 2 10 32 82 67 159 72 159 68 160 84 -28 8 -93 8 -121 -2
-127 -7 -4 10 -8 37 -8 42 0 47 2 33 12 -12 10 -21 57 -38 201 -12 103 -25
185 -28 181 -3 -3 -38 -76 -77 -162 -39 -86 -74 -156 -79 -155 -4 1 -40 72
-79 157 -39 85 -74 158 -77 161 -4 3 -12 -38 -18 -92z"/>
<path d="M1179 490 c-145 -77 -142 -304 5 -371 113 -51 241 1 252 103 l5 43
-15 -39 c-8 -22 -28 -53 -45 -70 -25 -25 -40 -30 -90 -34 -49 -4 -66 0 -96 18
-63 39 -93 131 -73 224 27 128 180 175 266 82 29 -33 32 -34 32 -13 0 32 -11
44 -53 62 -51 21 -143 19 -188 -5z"/>
<path d="M1481 478 c0 -18 3 -26 6 -18 10 24 25 30 86 30 l57 0 0 -174 c0
-145 -3 -177 -16 -190 -14 -15 -11 -16 31 -16 42 0 45 1 31 16 -13 13 -16 45
-16 190 l0 174 58 0 c60 0 75 -6 85 -30 3 -8 6 0 6 18 l1 32 -165 0 -165 0 1
-32z"/>
<path d="M750 481 c6 -11 10 -88 10 -180 0 -132 -3 -162 -16 -175 -14 -15 -11
-16 31 -16 42 0 45 1 30 16 -13 14 -15 41 -13 187 l3 172 42 3 c60 4 93 -29
93 -92 0 -36 -5 -48 -26 -65 -15 -12 -40 -21 -57 -21 l-31 0 21 -20 c12 -11
43 -49 68 -85 48 -67 86 -95 127 -95 23 1 23 1 -3 15 -14 8 -51 47 -81 88
l-56 73 30 17 c42 24 63 80 49 129 -17 57 -41 68 -144 68 -84 0 -87 -1 -77
-19z"/>
</g>
</svg>
